<?xml version="1.0" standalone="no"?>
<!DOCTYPE svg PUBLIC "-//W3C//DTD SVG 20010904//EN"
 "http://www.w3.org/TR/2001/REC-SVG-20010904/DTD/svg10.dtd">
<svg version="1.0" xmlns="http://www.w3.org/2000/svg"
 width="260.000000pt" height="260.000000pt" viewBox="0 0 260.000000 260.000000"
 preserveAspectRatio="xMidYMid meet">
<metadata>
Created by potrace 1.11, written by Peter Selinger 2001-2013
</metadata>
<g transform="translate(0.000000,260.000000) scale(0.100000,-0.100000)"
fill="#000000" stroke="none">
<path d="M1131 2590 c-556 -78 -987 -483 -1107 -1041 -26 -118 -26 -380 0
-498 59 -273 167 -474 360 -667 193 -193 394 -301 667 -360 118 -26 380 -26
498 0 273 59 474 167 667 360 193 193 301 394 360 667 14 62 18 127 18 249 0
122 -4 187 -18 249 -59 273 -167 474 -360 667 -190 189 -384 296 -646 355 -99
23 -340 33 -439 19z m364 -585 c99 -21 171 -60 241 -129 49 -50 124 -157 124
-179 0 -6 -245 -137 -257 -137 -5 0 -14 15 -21 33 -17 47 -68 105 -115 129
-34 18 -59 22 -127 23 -104 0 -159 -23 -220 -92 -64 -73 -75 -124 -75 -353 0
-229 11 -280 75 -353 74 -84 191 -116 304 -83 67 20 138 83 172 153 l21 42
121 -71 c67 -38 122 -75 122 -81 0 -22 -83 -137 -133 -184 -72 -68 -130 -100
-228 -124 -160 -41 -368 -13 -501 67 -115 70 -214 216 -255 379 -27 109 -24
402 5 509 67 244 223 405 435 451 83 18 226 18 312 0z"/>
</g>
</svg>
